<svg width="173" height="50" viewBox="0 0 173 50" fill="none" xmlns="http://www.w3.org/2000/svg">
<path d="M10.6826 19.2783C22.1751 19.2783 31.5808 28.2269 32.3271 39.5479H23.1465C11.654 39.5479 2.2483 30.5992 1.50195 19.2783H10.6826ZM62.3174 19.2783H71.498C70.7517 30.5992 61.346 39.5479 49.8535 39.5479H40.6729C41.4192 28.2269 50.8249 19.2783 62.3174 19.2783ZM36.5 3.52734C38.7374 7.70437 42.1591 11.1295 46.332 13.3691C42.1591 15.6086 38.7374 19.0341 36.5 23.2109C34.2624 19.0338 30.8403 15.6086 26.667 13.3691C30.8403 11.1295 34.2625 7.70462 36.5 3.52734Z" stroke="#BAC887" stroke-width="2.90411"/>
<path d="M87.1602 29.0227V29.4354C87.1602 31.5446 87.3914 33.1876 87.8536 34.3645C88.3313 35.5261 89.0555 36.4125 90.0262 37.0239C91.0123 37.6352 92.2989 37.9409 93.886 37.9409C94.718 37.9409 95.7042 37.8721 96.8444 37.7346C97.9846 37.597 99.2628 37.0239 99.6641 36.3453L98.9014 38.6929C98.1618 39.1667 97.9153 39.4464 96.6364 39.7979C95.3729 40.1495 94.0786 40.3252 92.7535 40.3252C89.379 40.3252 86.906 39.4235 85.3344 37.62C83.7781 35.8165 83 32.9201 83 28.931C83 25.1711 83.7935 22.3665 85.3806 20.5172C86.9676 18.6678 89.2327 17.7431 92.1757 17.7431C97.7381 17.7431 100.519 20.8763 100.519 27.1428V29.0227H87.1602ZM92.1757 19.5772C90.5732 19.5772 89.3405 20.2191 88.4777 21.503C87.6302 22.7868 87.2065 24.6821 87.2065 27.1886H96.4977C96.4977 24.4528 96.1433 22.5041 95.4345 21.3425C94.7257 20.1656 93.6394 19.5772 92.1757 19.5772Z" fill="#BAC887"/>
<path d="M118.755 38.2619C117.014 39.6374 115.119 40.3252 112.792 40.3252C106.86 40.3252 103.894 36.6494 103.894 29.2978C103.894 25.5227 104.733 22.6569 106.413 20.7006C108.092 18.7289 110.565 17.7431 113.832 17.7431C115.496 17.7431 117.183 17.9189 118.894 18.2704C118.801 17.766 118.755 16.4975 118.755 14.4647V8.87076C118.792 7.70794 118.114 7.40182 116.652 7H122.592V38.2619C122.622 39.3208 122.592 39.3974 122.592 39.9332H118.755V38.2619ZM108.054 29.2978C108.054 32.2018 108.547 34.3721 109.533 35.8088C110.519 37.2302 112.029 37.9409 114.063 37.9409C115.804 37.9409 117.368 37.6429 118.755 37.0468V20.0128C117.384 19.753 115.82 19.6231 114.063 19.6231C110.057 19.6231 108.054 22.848 108.054 29.2978Z" fill="#BAC887"/>
<path d="M154.117 50C152.915 50 151.729 49.8624 150.558 49.5873V44.9334C150.963 46.1889 151.425 46.5828 152.407 47.1342C153.106 47.5271 153.547 47.6615 154.394 47.6615C155.196 47.6615 155.935 47.4323 156.613 46.9738C157.291 46.5152 157.908 45.8351 158.462 44.9334C159.032 44.0316 159.741 42.4191 160.589 40.096L152.314 19.9211C151.804 18.8076 151.233 18.5724 150.096 18.3163H160.173C157.455 18.819 156.473 19.1565 156.752 19.9669L162.622 35.0293L168.308 19.9211C168.736 18.8078 167.462 18.6034 164.911 18.3163H173C171.851 18.5894 171.305 18.8715 170.735 19.8294L162.253 41.2193C161.251 43.7412 160.381 45.5524 159.641 46.6528C158.901 47.7533 158.085 48.5862 157.191 49.1517C156.297 49.7172 155.273 50 154.117 50Z" fill="#BAC887"/>
<path d="M142.422 38.2619C140.681 39.6374 138.786 40.3252 136.459 40.3252C130.527 40.3252 127.561 36.6494 127.561 29.2978C127.561 25.5227 128.401 22.6569 130.08 20.7006C131.76 18.7289 134.233 17.7431 137.499 17.7431C139.163 17.7431 140.851 17.9189 142.561 18.2704C142.468 17.766 142.422 16.4975 142.422 14.4647V8.87076C142.459 7.70794 141.781 7.40182 140.319 7H146.259V38.2619C146.289 39.3208 146.259 39.3637 146.259 39.8396L142.422 39.9332V38.2619ZM131.721 29.2978C131.721 32.2018 132.214 34.3721 133.2 35.8088C134.186 37.2302 135.696 37.9409 137.73 37.9409C139.471 37.9409 141.035 37.6429 142.422 37.0468V20.0128C141.051 19.753 139.487 19.6231 137.73 19.6231C133.724 19.6231 131.721 22.848 131.721 29.2978Z" fill="#BAC887"/>
</svg>
